<svg width="46" height="46" viewBox="0 0 46 46" fill="none" xmlns="http://www.w3.org/2000/svg">
<g clip-path="url(#clip0_621_6)">
<mask id="path-1-inside-1_621_6" fill="white">
<path d="M9.66686 24.3331C9.66686 29.1871 8.21886 32.3864 5.23886 34.1144C4.61323 34.4811 4.3938 35.2796 4.7442 35.9144L7.45886 40.7998C7.78467 41.3876 8.49701 41.641 9.12086 41.3911C11.3209 40.5051 18.7729 37.9858 22.4735 42.7444C22.5998 42.9072 22.7942 43.0024 23.0002 43.0024C23.2062 43.0024 23.4006 42.9072 23.5269 42.7444C27.2282 37.9864 34.6829 40.5051 36.8802 41.3911C37.5039 41.6406 38.2158 41.3872 38.5415 40.7998L41.2562 35.9131C41.6066 35.2782 41.3872 34.4798 40.7615 34.1131C37.7815 32.3864 36.3335 29.1871 36.3335 24.3331C36.3335 19.0398 39.9335 14.9998 41.0389 13.8858C41.5242 13.3989 41.5569 12.6217 41.1142 12.0958L38.4149 8.85577C38.1215 8.50459 37.6684 8.32842 37.2149 8.3891C30.8902 9.2191 28.9615 5.5331 28.4262 3.9071C28.2457 3.36324 27.7359 2.99712 27.1629 2.99977H18.8375C18.2645 2.99712 17.7547 3.36324 17.5742 3.9071C17.0409 5.5311 15.1075 9.21977 8.7882 8.3911C8.33462 8.33042 7.88161 8.50659 7.5882 8.85777L4.8882 12.0984C4.44548 12.6244 4.47818 13.4015 4.96353 13.8884C6.06686 14.9998 9.66686 19.0398 9.66686 24.3331ZM8.61486 9.7131C16.1335 10.6991 18.3415 5.8371 18.8375 4.3331L27.1602 4.32444C27.6582 5.8371 29.8682 10.6964 37.3895 9.70844L40.0922 12.9471C38.8975 14.1511 35.0002 18.5331 35.0002 24.3331C35.0002 29.7038 36.6669 33.2804 40.0909 35.2664L37.3782 40.1551C35.0589 39.2218 27.3909 36.6444 23.0002 41.3111C21.0589 39.2458 18.4775 38.5998 16.0002 38.5998C13.468 38.6661 10.9688 39.1915 8.6242 40.1504L5.90753 35.2664C9.33353 33.2804 11.0002 29.7038 11.0002 24.3331C11.0002 18.5331 7.10286 14.1511 5.9102 12.9491L8.61486 9.7131Z"/>
</mask>
<path d="M9.66686 24.3331C9.66686 29.1871 8.21886 32.3864 5.23886 34.1144C4.61323 34.4811 4.3938 35.2796 4.7442 35.9144L7.45886 40.7998C7.78467 41.3876 8.49701 41.641 9.12086 41.3911C11.3209 40.5051 18.7729 37.9858 22.4735 42.7444C22.5998 42.9072 22.7942 43.0024 23.0002 43.0024C23.2062 43.0024 23.4006 42.9072 23.5269 42.7444C27.2282 37.9864 34.6829 40.5051 36.8802 41.3911C37.5039 41.6406 38.2158 41.3872 38.5415 40.7998L41.2562 35.9131C41.6066 35.2782 41.3872 34.4798 40.7615 34.1131C37.7815 32.3864 36.3335 29.1871 36.3335 24.3331C36.3335 19.0398 39.9335 14.9998 41.0389 13.8858C41.5242 13.3989 41.5569 12.6217 41.1142 12.0958L38.4149 8.85577C38.1215 8.50459 37.6684 8.32842 37.2149 8.3891C30.8902 9.2191 28.9615 5.5331 28.4262 3.9071C28.2457 3.36324 27.7359 2.99712 27.1629 2.99977H18.8375C18.2645 2.99712 17.7547 3.36324 17.5742 3.9071C17.0409 5.5311 15.1075 9.21977 8.7882 8.3911C8.33462 8.33042 7.88161 8.50659 7.5882 8.85777L4.8882 12.0984C4.44548 12.6244 4.47818 13.4015 4.96353 13.8884C6.06686 14.9998 9.66686 19.0398 9.66686 24.3331ZM8.61486 9.7131C16.1335 10.6991 18.3415 5.8371 18.8375 4.3331L27.1602 4.32444C27.6582 5.8371 29.8682 10.6964 37.3895 9.70844L40.0922 12.9471C38.8975 14.1511 35.0002 18.5331 35.0002 24.3331C35.0002 29.7038 36.6669 33.2804 40.0909 35.2664L37.3782 40.1551C35.0589 39.2218 27.3909 36.6444 23.0002 41.3111C21.0589 39.2458 18.4775 38.5998 16.0002 38.5998C13.468 38.6661 10.9688 39.1915 8.6242 40.1504L5.90753 35.2664C9.33353 33.2804 11.0002 29.7038 11.0002 24.3331C11.0002 18.5331 7.10286 14.1511 5.9102 12.9491L8.61486 9.7131Z" fill="#333333"/>
<path d="M5.23886 34.1144L3.73395 31.5192L3.72201 31.5262L5.23886 34.1144ZM4.7442 35.9144L2.11766 37.3641L2.12186 37.3716L4.7442 35.9144ZM7.45886 40.7998L10.0828 39.3454L10.0812 39.3426L7.45886 40.7998ZM9.12086 41.3911L10.2365 44.176L10.2416 44.1739L9.12086 41.3911ZM22.4735 42.7444L24.8435 40.9051L24.8417 40.9028L22.4735 42.7444ZM23.5269 42.7444L21.159 40.9024L21.1569 40.9051L23.5269 42.7444ZM36.8802 41.3911L35.7583 44.1735L35.7658 44.1765L36.8802 41.3911ZM38.5415 40.7998L35.919 39.3429L35.9179 39.3449L38.5415 40.7998ZM41.2562 35.9131L43.8787 37.37L43.8827 37.3627L41.2562 35.9131ZM40.7615 34.1131L42.2784 31.5248L42.272 31.5211L42.2656 31.5174L40.7615 34.1131ZM41.0389 13.8858L38.9141 11.7679L38.9093 11.7728L41.0389 13.8858ZM41.1142 12.0958L38.8093 14.016L38.8141 14.0219L38.819 14.0277L41.1142 12.0958ZM38.4149 8.85577L40.7198 6.9355L40.7171 6.93226L38.4149 8.85577ZM37.2149 8.3891L37.6052 11.3636L37.6127 11.3626L37.2149 8.3891ZM28.4262 3.9071L31.2757 2.96894L31.2734 2.96199L28.4262 3.9071ZM27.1629 2.99977V5.9998L27.1767 5.99974L27.1629 2.99977ZM18.8375 2.99977L18.8237 5.99977H18.8375V2.99977ZM17.5742 3.9071L14.7269 2.96199L14.724 2.97107L17.5742 3.9071ZM8.7882 8.3911L8.39039 11.3646L8.39814 11.3656L8.7882 8.3911ZM7.5882 8.85777L5.286 6.93426L5.28334 6.93745L7.5882 8.85777ZM4.8882 12.0984L7.18338 14.0303L7.18823 14.0245L7.19306 14.0188L4.8882 12.0984ZM4.96353 13.8884L7.0925 11.7748L7.08827 11.7705L4.96353 13.8884ZM8.61486 9.7131L9.00494 6.73857L7.37029 6.5242L6.313 7.7892L8.61486 9.7131ZM18.8375 4.3331L18.8344 1.33311L16.6672 1.33536L15.9885 3.39352L18.8375 4.3331ZM27.1602 4.32444L30.0097 3.38631L29.3302 1.32218L27.1571 1.32444L27.1602 4.32444ZM37.3895 9.70844L39.6929 7.7863L38.6353 6.51902L36.9988 6.73399L37.3895 9.70844ZM40.0922 12.9471L42.2218 15.0602L44.1452 13.1217L42.3955 11.025L40.0922 12.9471ZM40.0909 35.2664L42.7141 36.722L44.1423 34.1482L41.5961 32.6714L40.0909 35.2664ZM37.3782 40.1551L36.2582 42.9382L38.716 43.9273L40.0014 41.6107L37.3782 40.1551ZM23.0002 41.3111L20.8143 43.3658L22.9992 45.6902L25.1851 43.3668L23.0002 41.3111ZM16.0002 38.5998V35.5998H15.9609L15.9216 35.6008L16.0002 38.5998ZM8.6242 40.1504L6.00249 41.6087L7.2963 43.9347L9.75985 42.9272L8.6242 40.1504ZM5.90753 35.2664L4.40299 32.671L1.85315 34.1491L3.28582 36.7247L5.90753 35.2664ZM5.9102 12.9491L3.60833 11.0252L1.85569 13.1221L3.78063 15.0621L5.9102 12.9491ZM6.66686 24.3331C6.66686 28.6052 5.43243 30.5343 3.73397 31.5192L6.74376 36.7097C11.0053 34.2386 12.6669 29.769 12.6669 24.3331H6.66686ZM3.72201 31.5262C1.69291 32.7153 0.981236 35.305 2.11767 37.3641L7.37072 34.4648C7.80636 35.2542 7.53355 36.2469 6.75572 36.7027L3.72201 31.5262ZM2.12186 37.3716L4.83653 42.257L10.0812 39.3426L7.36653 34.4573L2.12186 37.3716ZM4.83497 42.2541C5.89382 44.1645 8.20893 44.9882 10.2365 44.176L8.00526 38.6063C8.78509 38.2939 9.67551 38.6107 10.0828 39.3454L4.83497 42.2541ZM10.2416 44.1739C11.221 43.7795 13.2805 43.0653 15.4023 42.9463C17.5351 42.8268 19.1194 43.3183 20.1053 44.5861L24.8417 40.9028C22.127 37.4119 18.135 36.7838 15.0666 36.9557C11.9873 37.1283 9.22076 38.1167 8.00015 38.6083L10.2416 44.1739ZM20.1035 44.5838C20.7981 45.4787 21.8673 46.0024 23.0002 46.0024V40.0024C23.7211 40.0024 24.4015 40.3356 24.8435 40.9051L20.1035 44.5838ZM23.0002 46.0024C24.1331 46.0024 25.2023 45.4787 25.8969 44.5838L21.1569 40.9051C21.5989 40.3356 22.2793 40.0024 23.0002 40.0024V46.0024ZM25.8948 44.5865C26.8809 43.3188 28.4662 42.8271 30.5998 42.9466C32.7222 43.0654 34.7817 43.7797 35.7583 44.1734L38.0021 38.6088C36.7814 38.1166 34.0149 37.1284 30.9353 36.956C27.8668 36.7841 23.8741 37.4121 21.159 40.9024L25.8948 44.5865ZM35.7658 44.1765C37.7928 44.9874 40.1064 44.1639 41.1652 42.2546L35.9179 39.3449C36.3251 38.6106 37.215 38.2939 37.9946 38.6058L35.7658 44.1765ZM41.164 42.2566L43.8787 37.37L38.6337 34.4562L35.919 39.3429L41.164 42.2566ZM43.8827 37.3627C45.0192 35.3036 44.3075 32.714 42.2784 31.5248L39.2447 36.7014C38.4668 36.2455 38.194 35.2528 38.6297 34.4635L43.8827 37.3627ZM42.2656 31.5174C40.5681 30.5338 39.3335 28.6056 39.3335 24.3331H33.3335C33.3335 29.7686 34.9949 34.239 39.2575 36.7089L42.2656 31.5174ZM39.3335 24.3331C39.3335 20.303 42.1641 17.0111 43.1685 15.9988L38.9093 11.7728C37.703 12.9885 33.3335 17.7766 33.3335 24.3331H39.3335ZM43.1636 16.0037C44.747 14.4151 44.8537 11.8799 43.4094 10.1639L38.819 14.0277C38.2601 13.3636 38.3014 12.3826 38.9141 11.7679L43.1636 16.0037ZM43.4191 10.1755L40.7198 6.9355L36.11 10.776L38.8093 14.016L43.4191 10.1755ZM40.7171 6.93226C39.7635 5.79093 38.2912 5.21838 36.8171 5.4156L37.6127 11.3626C37.0457 11.4385 36.4794 11.2183 36.1127 10.7793L40.7171 6.93226ZM36.8245 5.41461C34.3191 5.7434 33.0821 5.15107 32.468 4.68307C31.7771 4.1565 31.4321 3.44402 31.2757 2.96894L25.5767 4.84527C25.9556 5.99619 26.8426 7.93971 28.8311 9.45514C30.8963 11.0291 33.7859 11.8648 37.6052 11.3636L36.8245 5.41461ZM31.2734 2.96199C30.6841 1.18643 29.0198 -0.00884056 27.149 -0.000197887L27.1767 5.99974C26.452 6.00309 25.8073 5.54005 25.579 4.85222L31.2734 2.96199ZM27.1629 -0.000229836H18.8375V5.99977H27.1629V-0.000229836ZM18.8514 -0.000197887C16.9806 -0.00884056 15.3163 1.18643 14.727 2.96199L20.4214 4.85222C20.1931 5.54005 19.5484 6.00309 18.8237 5.99974L18.8514 -0.000197887ZM14.724 2.97107C14.5693 3.44187 14.2244 4.15531 13.532 4.68316C12.9168 5.15225 11.6796 5.74457 9.17825 5.41657L8.39814 11.3656C12.2162 11.8663 15.1053 11.0286 17.1699 9.45455C19.1574 7.93923 20.0457 5.99634 20.4244 4.84314L14.724 2.97107ZM9.186 5.4176C7.71187 5.22038 6.23959 5.79293 5.286 6.93426L9.8904 10.7813C9.52363 11.2203 8.95737 11.4405 8.3904 11.3646L9.186 5.4176ZM5.28334 6.93745L2.58334 10.1781L7.19306 14.0188L9.89306 10.7781L5.28334 6.93745ZM2.59302 10.1666C1.14867 11.8825 1.25537 14.4178 2.83879 16.0063L7.08827 11.7705C7.701 12.3852 7.74228 13.3663 7.18338 14.0303L2.59302 10.1666ZM2.83456 16.0021C3.83603 17.0108 6.66686 20.3028 6.66686 24.3331H12.6669C12.6669 17.7767 8.2977 12.9887 7.0925 11.7748L2.83456 16.0021ZM8.22478 12.6876C12.7301 13.2785 16.0136 12.1292 18.2674 10.2722C20.4216 8.49722 21.3414 6.31928 21.6866 5.27269L15.9885 3.39352C15.8376 3.85093 15.4054 4.85599 14.452 5.64152C13.5981 6.34505 12.0183 7.13375 9.00494 6.73857L8.22478 12.6876ZM18.8407 7.3331L27.1633 7.32444L27.1571 1.32444L18.8344 1.33311L18.8407 7.3331ZM24.3107 5.26256C24.657 6.31456 25.5781 8.49465 27.7341 10.2701C29.9896 12.1274 33.2744 13.2748 37.7803 12.6829L36.9988 6.73399C33.9833 7.13011 32.4025 6.34183 31.5481 5.63832C30.5943 4.85289 30.1614 3.84698 30.0097 3.38631L24.3107 5.26256ZM35.0862 11.6306L37.7889 14.8692L42.3955 11.025L39.6929 7.7863L35.0862 11.6306ZM37.9626 10.8341C36.6575 12.1494 32.0002 17.277 32.0002 24.3331H38.0002C38.0002 19.7892 41.1376 16.1528 42.2218 15.0602L37.9626 10.8341ZM32.0002 24.3331C32.0002 30.3433 33.9165 35.1533 38.5857 37.8615L41.5961 32.6714C39.4173 31.4076 38.0002 29.0643 38.0002 24.3331H32.0002ZM37.4677 33.8109L34.755 38.6995L40.0014 41.6107L42.7141 36.722L37.4677 33.8109ZM38.4982 37.372C37.2099 36.8536 34.3733 35.8466 31.159 35.6393C27.956 35.4328 23.8752 36.0031 20.8152 39.2554L25.1851 43.3668C26.5159 41.9524 28.4644 41.4781 30.7729 41.6269C33.0701 41.775 35.2271 42.5233 36.2582 42.9382L38.4982 37.372ZM25.1861 39.2564C22.4831 36.3808 18.9702 35.5998 16.0002 35.5998V41.5998C17.9849 41.5998 19.6346 42.1108 20.8143 43.3658L25.1861 39.2564ZM15.9216 35.6008C13.0265 35.6767 10.1691 36.2774 7.48854 37.3737L9.75985 42.9272C11.7684 42.1057 13.9094 41.6556 16.0788 41.5988L15.9216 35.6008ZM11.2459 38.6922L8.52924 33.8081L3.28582 36.7247L6.00249 41.6087L11.2459 38.6922ZM7.41207 37.8619C12.0838 35.1538 14.0002 30.3435 14.0002 24.3331H8.0002C8.0002 29.0641 6.58328 31.4071 4.40299 32.671L7.41207 37.8619ZM14.0002 24.3331C14.0002 17.2771 9.34309 12.1496 8.03977 10.8361L3.78063 15.0621C4.86264 16.1526 8.0002 19.7891 8.0002 24.3331H14.0002ZM8.21206 14.873L10.9167 11.637L6.313 7.7892L3.60833 11.0252L8.21206 14.873Z" fill="#222222" mask="url(#path-1-inside-1_621_6)"/>
<path d="M22.7277 38.2783L23.0009 38.4559L23.2737 38.2777C23.5264 38.1126 23.7877 37.9581 24.0543 37.8155C24.1355 37.7724 24.2364 37.8031 24.2797 37.8843C24.323 37.9656 24.2923 38.0666 24.211 38.1099L24.2108 38.11C23.8249 38.316 23.453 38.5472 23.0975 38.8021L23.0974 38.8022C23.0393 38.8439 22.9611 38.8439 22.9031 38.8022L22.9029 38.8021C22.5475 38.5472 22.1756 38.316 21.7897 38.11L21.7895 38.1099C21.7369 38.0819 21.7033 38.0279 21.7013 37.9684C21.6993 37.9089 21.7292 37.8528 21.7797 37.8213C21.8299 37.79 21.893 37.7876 21.9453 37.8151C22.214 37.9607 22.4744 38.1136 22.7277 38.2783Z" fill="#333333" stroke="#222222"/>
<path d="M19.8205 36.9549L19.8323 36.9583C19.9061 36.9849 19.9518 37.0598 19.9407 37.1384C19.929 37.2207 19.8585 37.2818 19.7754 37.2817L19.7741 37.2817C19.7598 37.2817 19.7456 37.2796 19.7319 37.2755L19.7319 37.2755L19.7261 37.2738C19.0105 37.0682 18.2782 36.9263 17.5376 36.8498C17.4785 36.8434 17.4272 36.8061 17.4031 36.7518C17.3789 36.6973 17.3855 36.6342 17.4206 36.586C17.4556 36.5378 17.5136 36.512 17.5729 36.5183L17.5736 36.5183C18.3339 36.5975 19.0858 36.7436 19.8205 36.9549Z" fill="#333333" stroke="#222222"/>
<path d="M12.938 36.1906L13.0177 36.6842C13.7695 36.5627 14.5276 36.4852 15.2884 36.4521L15.3079 36.4513C15.3597 36.4556 15.407 36.4839 15.4353 36.5284C15.4672 36.5789 15.4698 36.6426 15.4421 36.6955C15.4144 36.7484 15.3605 36.7826 15.3008 36.785L15.3008 36.785L15.2994 36.7851C14.5523 36.8178 13.8077 36.8941 13.0694 37.0137L13.1493 37.5073M12.938 36.1906L13.0183 36.6841C12.9327 36.698 12.8721 36.7753 12.879 36.8617C12.8858 36.9482 12.9578 37.0149 13.0445 37.0153L13.0468 37.0153C13.0548 37.0153 13.0628 37.0147 13.0706 37.0135L13.1493 37.5073M12.938 36.1906C12.5956 36.2463 12.3532 36.5553 12.3805 36.9011C12.4078 37.2469 12.6958 37.514 13.0427 37.5153C13.0784 37.5155 13.1141 37.5129 13.1493 37.5073M12.938 36.1906C13.7089 36.066 14.4865 35.9866 15.2667 35.9526V35.9512L15.3213 37.2846C14.5936 37.3165 13.8684 37.3908 13.1493 37.5073" fill="#333333" stroke="#222222"/>
<path d="M10.7897 37.1573L10.7828 37.1591C10.5152 37.2298 10.258 37.3022 10.011 37.3761L9.62607 37.4913L9.43073 37.1401L8.9394 36.2568L8.74771 35.9121L9.03817 35.6454C9.24123 35.459 9.4363 35.2662 9.6234 35.0672L9.98768 35.4097M10.7897 37.1573L8.38671 35.9481C8.34786 35.8782 8.36424 35.7904 8.42574 35.7392L8.4261 35.7389C8.76157 35.4588 9.07983 35.1588 9.37914 34.8404C9.44229 34.7742 9.54705 34.7713 9.61379 34.834C9.68069 34.8968 9.68423 35.0019 9.6217 35.069L9.98768 35.4097M10.7897 37.1573L10.7966 37.1552C10.8549 37.138 10.9178 37.1539 10.961 37.1965C11.0042 37.2392 11.0207 37.302 11.0042 37.3604C10.9877 37.4188 10.9408 37.4636 10.8816 37.4774L10.8743 37.4791L10.8671 37.481C10.4152 37.6006 9.99039 37.7264 9.59927 37.8522C9.58241 37.8575 9.56484 37.8603 9.54716 37.8604C9.48688 37.8602 9.43138 37.8275 9.40204 37.7748C9.40203 37.7748 9.40201 37.7747 9.402 37.7747L8.38674 35.9482L10.7897 37.1573ZM9.98768 35.4097C10.2378 35.141 10.2236 34.7207 9.95605 34.4695C9.68845 34.2182 9.2681 34.2305 9.01568 34.497L11.4854 37.4964C11.5514 37.2627 11.4852 37.0116 11.3125 36.8409C11.1397 36.6702 10.8879 36.6069 10.655 36.6757C10.3826 36.7477 10.1201 36.8215 9.86768 36.897L9.37635 36.0137C9.58835 35.819 9.79213 35.6177 9.98768 35.4097Z" fill="#333333" stroke="#222222"/>
<path d="M10.8589 32.8572L10.8597 32.8558C11.2755 32.1406 11.6207 31.3866 11.8905 30.6045C11.9207 30.518 12.0151 30.4722 12.1016 30.5018C12.1877 30.5326 12.2329 30.6272 12.2028 30.7136L12.2022 30.7154C11.925 31.5183 11.5703 32.2923 11.143 33.0263C11.1132 33.0771 11.0588 33.1083 10.9999 33.1085C10.9719 33.1083 10.9445 33.1007 10.9205 33.0864L10.9205 33.0864L10.9184 33.0852C10.839 33.0387 10.8124 32.9366 10.8589 32.8572Z" fill="#333333" stroke="#222222"/>
<path d="M12.6676 22.0655L12.0888 21.6313C12.1881 22.1725 12.258 22.7188 12.2982 23.2679C12.3234 23.6172 12.6146 23.8875 12.9649 23.8866H13.0142M12.6676 22.0655C12.7252 22.4522 12.7683 22.8411 12.7969 23.2314L12.7969 23.2319C12.8032 23.3192 12.876 23.3868 12.9636 23.3866L12.9649 23.3866L12.99 23.3866M12.6676 22.0655L12.7384 22.1185L12.4229 20.7774C12.4093 20.7194 12.4276 20.6586 12.471 20.6178C12.5144 20.577 12.5762 20.5624 12.6333 20.5796C12.6903 20.5968 12.7338 20.6431 12.7475 20.701L13.2331 20.5868L12.7475 20.7011C12.9415 21.5259 13.0701 22.3648 13.1322 23.2099L13.6309 23.1732L13.1322 23.2096C13.1354 23.2536 13.1209 23.2972 13.092 23.3307C13.0658 23.361 13.0295 23.3808 12.99 23.3866M12.6676 22.0655C12.6033 21.6332 12.521 21.2036 12.4208 20.7779C12.4206 20.777 12.4204 20.7762 12.4202 20.7753L13.4703 23.6576C13.3546 23.7914 13.1906 23.8738 13.0142 23.8866M12.99 23.3866C12.986 23.3872 12.982 23.3876 12.978 23.3879L13.0142 23.8866M12.99 23.3866H13.0142V23.8866" fill="#333333" stroke="#222222"/>
<path d="M12.6763 28.3944L12.6748 28.3944C12.6643 28.3944 12.6539 28.3937 12.6435 28.3922C12.6014 28.3837 12.5642 28.3593 12.5396 28.324L12.1325 28.6074L12.5396 28.324C12.5144 28.2878 12.5046 28.2429 12.5124 28.1994L12.5126 28.1981C12.6571 27.3805 12.7517 26.555 12.796 25.726C12.8033 25.6335 12.8818 25.5631 12.9744 25.5658C13.0647 25.5725 13.1333 25.6503 13.1283 25.7411L13.1283 25.7417C13.0832 26.5854 12.9869 27.4257 12.8401 28.2578C12.8256 28.3368 12.7567 28.3943 12.6763 28.3944Z" fill="#333333" stroke="#222222"/>
<path d="M11.8246 18.5085H11.8242C11.7558 18.5085 11.6944 18.4667 11.6692 18.4031L11.6688 18.4021C11.3616 17.6313 11.004 16.8816 10.5982 16.1578C10.5557 16.0779 10.5848 15.9785 10.664 15.9342C10.7432 15.8898 10.8433 15.9171 10.8891 15.9953C11.3025 16.7322 11.6668 17.4956 11.9797 18.2805C11.9999 18.3318 11.9935 18.3898 11.9625 18.4355C11.9315 18.4812 11.8798 18.5085 11.8246 18.5085Z" fill="#333333" stroke="#222222"/>
<path d="M9.51137 11.1411L9.47746 11.6399C9.83195 11.664 10.1806 11.6757 10.5214 11.6757H10.788V11.6758L10.7968 11.6757C10.8889 11.6741 10.9648 11.7474 10.9664 11.8395C10.968 11.9306 10.8963 12.0059 10.8055 12.0091H10.5194C10.2794 12.0091 10.0346 12.0033 9.78684 11.9916L9.53874 11.98L9.37956 12.1706L9.03556 12.5826L8.77583 12.8937L9.02638 13.2122C9.18488 13.4137 9.34633 13.6258 9.51072 13.8486C9.56451 13.9231 9.5481 14.0271 9.47384 14.0813C9.39936 14.1357 9.29489 14.1194 9.2405 14.0449L9.2405 14.0449C8.96349 13.6655 8.69052 13.3175 8.4297 13.0027L8.42951 13.0025C8.37843 12.9409 8.37831 12.8518 8.42917 12.7901L9.33917 11.7002L9.33961 11.6997C9.37373 11.6587 9.4254 11.6365 9.47861 11.64L9.51137 11.1411ZM9.51137 11.1411C9.29852 11.1271 9.09185 11.2158 8.95537 11.3797M9.51137 11.1411C9.8547 11.1644 10.192 11.1757 10.5214 11.1757H10.788C11.1562 11.1693 11.4599 11.4626 11.4664 11.8307C11.4728 12.1989 11.1796 12.5026 10.8114 12.5091H10.5194C10.2714 12.5091 10.0187 12.5031 9.76337 12.4911L8.95537 11.3797M8.95537 11.3797L8.0447 12.4704L8.95537 11.3797Z" fill="#333333" stroke="#222222"/>
<path d="M17.5337 10.4279L17.2421 10.0217C16.3122 10.6893 15.2755 11.1937 14.1762 11.513L14.1762 11.513L14.1732 11.5139C14.1584 11.5183 14.1431 11.5205 14.1276 11.5205L14.126 11.5205C14.043 11.5207 13.9726 11.4598 13.9607 11.3776C13.9489 11.2954 13.9994 11.2171 14.079 11.1939L13.939 10.7139L14.0781 11.1941C15.1415 10.8862 16.1446 10.399 17.0439 9.75338L17.0439 9.75338L17.0453 9.75237C17.12 9.69841 17.2242 9.71517 17.2782 9.78981C17.3321 9.86445 17.3154 9.9687 17.2407 10.0227L17.5337 10.4279ZM17.5337 10.4279C17.8321 10.2121 17.8991 9.79527 17.6834 9.49685C17.4676 9.19844 17.0508 9.13143 16.7524 9.34719L14.127 12.0205C14.1909 12.0206 14.2545 12.0114 14.3157 11.9932C15.4695 11.658 16.5577 11.1286 17.5337 10.4279Z" fill="#333333" stroke="#222222"/>
<path d="M19.4781 7.64317H19.4777L20.0088 6.25688C20.0374 6.20139 20.0946 6.1665 20.157 6.1665H20.157H21.4903C21.5824 6.1665 21.657 6.24112 21.657 6.33317C21.657 6.42522 21.5824 6.49984 21.4903 6.49984H20.557H20.2637L20.1206 6.75584C19.9636 7.03659 19.795 7.30955 19.6161 7.57029L19.6158 7.57067C19.5847 7.61609 19.5332 7.64322 19.4781 7.64317ZM19.3307 7.55419C19.302 7.49957 19.3057 7.43352 19.3405 7.38253L19.4776 7.64317C19.416 7.64295 19.3595 7.60873 19.3307 7.55419Z" fill="#333333" stroke="#222222"/>
<path d="M26.4354 6.02917L25.9902 6.25659C26.1889 6.64569 26.4121 7.02176 26.6586 7.38253L26.6584 7.38263L26.6665 7.39378C26.702 7.44287 26.7081 7.50739 26.6824 7.56227L27.1352 7.77443L26.6824 7.56227C26.6567 7.61714 26.6032 7.65374 26.5428 7.65783C26.4823 7.66192 26.4244 7.63287 26.3915 7.58195L26.3917 7.58184L26.3837 7.57029C26.2048 7.30955 26.0362 7.03658 25.8792 6.75584L25.7361 6.49984H25.4428H24.5094C24.4174 6.49984 24.3428 6.42522 24.3428 6.33317C24.3428 6.24112 24.4174 6.1665 24.5094 6.1665H25.8424C25.9049 6.16663 25.962 6.20161 25.9904 6.25717L26.4354 6.02917ZM26.4354 6.02917C26.3215 5.80675 26.0927 5.66675 25.8428 5.6665L27.0714 7.1005C26.837 6.75723 26.6245 6.3994 26.4354 6.02917Z" fill="#333333" stroke="#222222"/>
<path d="M31.6821 11.9925C31.7433 12.0109 31.8068 12.0204 31.8708 12.0205C32.2028 12.0212 32.4847 11.7774 32.532 11.4488C32.5793 11.1201 32.3775 10.8068 32.0588 10.7138C31.0506 10.4211 30.0996 9.95869 29.2468 9.34651C29.0544 9.19524 28.7947 9.1615 28.5701 9.2586C28.3455 9.35571 28.1921 9.56804 28.1706 9.81178C28.149 10.0555 28.2627 10.2915 28.4668 10.4265C29.4416 11.1276 30.529 11.6572 31.6821 11.9925Z" fill="#333333"/>
<path d="M36.0875 13.5505L36.4908 13.8461C36.6548 13.6224 36.8157 13.4104 36.9736 13.21L37.2244 12.8917L36.965 12.5804L36.6216 12.1684L36.4625 11.9774L36.2141 11.9891C35.9657 12.0007 35.7208 12.0065 35.4809 12.0065H35.1889H35.1645C35.0862 11.9923 35.0271 11.9234 35.0278 11.8411C35.0286 11.7491 35.1039 11.6751 35.1959 11.6759L35.1959 11.6759H35.2002H35.2142H35.4809C35.8204 11.6759 36.1685 11.6642 36.5224 11.6402C36.5764 11.6371 36.6288 11.6597 36.6637 11.7011C36.6638 11.7012 36.6638 11.7013 36.6639 11.7013L37.5723 12.7867C37.5724 12.7869 37.5725 12.787 37.5726 12.7872C37.6235 12.8489 37.6234 12.9381 37.5722 12.9997L37.5719 13.0002C37.3112 13.3147 37.0382 13.6621 36.7611 14.0417L36.7609 14.0418C36.7066 14.1163 36.6023 14.1326 36.5279 14.0783C36.4535 14.024 36.4372 13.9197 36.4914 13.8452L36.0875 13.5505ZM36.0875 13.5505C35.8705 13.848 35.9357 14.2652 36.2332 14.4822C36.5307 14.6993 36.9478 14.634 37.1649 14.3365L35.4809 12.5065C35.7289 12.5065 35.9815 12.5005 36.2375 12.4885L36.5809 12.9005C36.4191 13.1059 36.2546 13.3225 36.0875 13.5505Z" fill="#333333" stroke="#222222"/>
<path d="M33.32 28.3792L33.3206 28.3792C33.3314 28.3792 33.3422 28.3783 33.3529 28.3766C33.3957 28.3685 33.4336 28.3439 33.4586 28.3082L33.8687 28.5942L33.4586 28.3082C33.4838 28.2719 33.4937 28.2271 33.4859 28.1836L33.4857 28.1823C33.342 27.3633 33.248 26.5365 33.2042 25.7062L33.32 28.3792ZM33.32 28.3792C33.2392 28.3793 33.1699 28.3214 33.1557 28.2418M33.32 28.3792L33.1557 28.2418M33.1557 28.2418L32.6635 28.3298L33.1557 28.2418Z" fill="#333333" stroke="#222222"/>
<mask id="path-18-inside-2_621_6" fill="white">
<path d="M33.7334 30.0146C33.3857 30.1353 33.2016 30.5148 33.3221 30.8626C33.6083 31.6965 33.9756 32.5003 34.4187 33.2626C34.5372 33.4718 34.7591 33.6011 34.9996 33.6008C35.2401 33.6006 35.4617 33.4709 35.5798 33.2614C35.6978 33.0518 35.6938 32.795 35.5694 32.5893C35.1706 31.9015 34.8397 31.1765 34.5814 30.4246C34.4602 30.0774 34.0808 29.894 33.7334 30.0146Z"/>
</mask>
<path d="M33.7334 30.0146C33.3857 30.1353 33.2016 30.5148 33.3221 30.8626C33.6083 31.6965 33.9756 32.5003 34.4187 33.2626C34.5372 33.4718 34.7591 33.6011 34.9996 33.6008C35.2401 33.6006 35.4617 33.4709 35.5798 33.2614C35.6978 33.0518 35.6938 32.795 35.5694 32.5893C35.1706 31.9015 34.8397 31.1765 34.5814 30.4246C34.4602 30.0774 34.0808 29.894 33.7334 30.0146Z" fill="#333333"/>
<path d="M33.3221 30.8626L34.2679 30.5379L34.267 30.5353L33.3221 30.8626ZM34.4187 33.2626L35.289 32.7699L35.2833 32.76L34.4187 33.2626ZM35.5694 32.5893L34.7043 33.0909L34.7089 33.0988L34.7136 33.1066L35.5694 32.5893ZM34.5814 30.4246L35.5272 30.0997L35.5255 30.0949L34.5814 30.4246ZM33.4055 29.0699C32.5363 29.3716 32.076 30.3205 32.3771 31.1899L34.267 30.5353C34.3272 30.7092 34.2351 30.8989 34.0613 30.9593L33.4055 29.0699ZM32.3762 31.1872C32.6837 32.083 33.0782 32.9464 33.5542 33.7652L35.2833 32.76C34.873 32.0543 34.5329 31.31 34.2679 30.5379L32.3762 31.1872ZM33.5485 33.7552C33.8446 34.2784 34.3995 34.6015 35.0007 34.6008L34.9985 32.6008C35.1188 32.6007 35.2297 32.6653 35.289 32.77L33.5485 33.7552ZM35.0007 34.6008C35.6018 34.6002 36.156 34.2759 36.451 33.7521L34.7085 32.7706C34.7675 32.6658 34.8783 32.601 34.9985 32.6008L35.0007 34.6008ZM36.451 33.7521C36.7461 33.2284 36.7362 32.5863 36.4251 32.0719L34.7136 33.1066C34.6514 33.0038 34.6495 32.8753 34.7085 32.7706L36.451 33.7521ZM36.4345 32.0876C36.0682 31.456 35.7643 30.7902 35.5272 30.0997L33.6356 30.7494C33.915 31.5628 34.2729 32.347 34.7043 33.0909L36.4345 32.0876ZM35.5255 30.0949C35.2224 29.227 34.2739 28.7684 33.4055 29.0699L34.0613 30.9593C33.8876 31.0196 33.6979 30.9279 33.6373 30.7543L35.5255 30.0949Z" fill="#222222" mask="url(#path-18-inside-2_621_6)"/>
<path d="M33.5603 18.0805L34.0247 18.2658C34.3374 17.4823 34.7015 16.7204 35.1147 15.985C35.1616 15.9093 35.2599 15.8837 35.3379 15.9274C35.4158 15.9711 35.4453 16.0682 35.4053 16.1476C34.9999 16.8698 34.6424 17.6179 34.3353 18.3871L34.3353 18.3871L34.3348 18.3885C34.3096 18.4521 34.2481 18.4938 34.1798 18.4938H34.1796C34.1598 18.4938 34.1401 18.49 34.1217 18.4825L34.1217 18.4825L34.1184 18.4812C34.033 18.4472 33.9912 18.3504 34.0251 18.2649L33.5603 18.0805ZM33.5603 18.0805C33.882 17.2743 34.2568 16.4904 34.6823 15.7338L33.9337 18.9458C33.5917 18.8099 33.4246 18.4226 33.5603 18.0805Z" fill="#333333" stroke="#222222"/>
<path d="M33.0424 23.8665H32.993L33.0306 23.3679C33.0264 23.3676 33.0223 23.3671 33.0181 23.3665M33.0424 23.8665L33.0181 23.3665M33.0424 23.8665C33.3926 23.8674 33.6838 23.5972 33.7091 23.2478L33.0424 23.8665ZM33.0181 23.3665H33.0424H33.0437C33.1312 23.3667 33.204 23.2992 33.2103 23.2118L33.2104 23.2109C33.2717 22.3837 33.3983 21.5627 33.5891 20.7555L33.5919 20.7438L33.592 20.7438C33.6074 20.6853 33.5898 20.623 33.546 20.5812L33.8783 20.234L33.546 20.5812C33.5023 20.5393 33.4393 20.5245 33.3815 20.5424C33.3237 20.5603 33.2801 20.6081 33.2677 20.6673L33.2651 20.6799L33.2649 20.6799C33.0694 21.5044 32.9397 22.3431 32.877 23.1881L32.8769 23.1891C32.8736 23.2332 32.8879 23.2768 32.9167 23.3103C32.9428 23.3407 32.9788 23.3605 33.0181 23.3665ZM32.7784 20.5645C32.5768 21.4148 32.443 22.2797 32.3784 23.1512L32.7784 20.5645Z" fill="#333333" stroke="#222222"/>
<path d="M36.2496 38.3284L36.4027 37.8525C36.0114 37.7266 35.5863 37.6008 35.1342 37.4811L35.1269 37.4792L35.1196 37.4775C35.0605 37.4637 35.0135 37.4189 34.997 37.3605C34.9805 37.3021 34.9971 37.2393 35.0403 37.1966L34.6888 36.841L35.0403 37.1966C35.0834 37.1539 35.1464 37.1381 35.2046 37.1553L35.2046 37.1555L35.2179 37.159C35.4863 37.2303 35.7439 37.3027 35.9907 37.3763L36.3756 37.491L36.5707 37.1399L37.0613 36.2566L37.2525 35.9125L36.9628 35.6459C36.7596 35.4588 36.5646 35.266 36.3779 35.0673L36.3779 35.0673L36.3766 35.066C36.3355 35.0226 36.3208 34.9606 36.338 34.9034C36.3551 34.8462 36.4016 34.8026 36.4598 34.789C36.5179 34.7755 36.5789 34.7941 36.6196 34.8378L36.6196 34.8378L36.6214 34.8398C36.921 35.1582 37.2394 35.4584 37.5749 35.7388L37.5753 35.7391C37.6367 35.7903 37.6531 35.8779 37.6144 35.9478C37.6144 35.9478 37.6144 35.9479 37.6143 35.9479L36.5993 37.7748C36.5699 37.8275 36.5144 37.8603 36.4541 37.8604C36.4363 37.8604 36.4186 37.8576 36.4017 37.8521L36.2496 38.3284ZM36.2496 38.3284C36.3155 38.3495 36.3843 38.3603 36.4536 38.3604L35.0062 37.9644C35.4496 38.0818 35.8662 38.2051 36.2496 38.3284ZM36.9856 34.4971C36.8228 34.3223 36.579 34.2479 36.3463 34.3021C36.1137 34.3563 35.9278 34.5308 35.8591 34.7595C35.7904 34.9883 35.8493 35.2364 36.0136 35.4098C36.2087 35.6173 36.4122 35.8187 36.6242 36.0138L36.9856 34.4971Z" fill="#333333" stroke="#222222"/>
<path d="M30.0455 36.5911C30.0305 36.9589 30.3164 37.2693 30.6842 37.2845M30.0455 36.5911L30.5443 36.6256C30.5445 36.6232 30.5447 36.6208 30.5449 36.6184M30.0455 36.5911L30.5451 36.6115C30.545 36.6139 30.5449 36.6161 30.5449 36.6184M30.0455 36.5911C30.0706 36.228 30.3749 35.9477 30.7388 35.9525M30.6842 37.2845L30.7388 35.9525M30.6842 37.2845C31.4119 37.3165 32.1371 37.3908 32.8562 37.5071L30.6842 37.2845ZM30.5449 36.6184C30.5449 36.7073 30.6151 36.7812 30.7047 36.7849L30.7062 36.7849L30.7062 36.7849C31.4532 36.8178 32.1978 36.8942 32.936 37.0135L32.9383 37.0139L32.9383 37.0139C32.9459 37.0152 32.9535 37.0158 32.9612 37.0158L32.9622 37.5158L32.9603 37.0158C33.047 37.0155 33.119 36.9487 33.1259 36.8623C33.1327 36.7758 33.0721 36.6986 32.9865 36.6846L33.0668 36.1911L32.9868 36.6847C32.2387 36.5634 31.4841 36.4858 30.727 36.4524M30.5449 36.6184C30.5549 36.5252 30.6331 36.4538 30.727 36.4524M30.727 36.4524C30.7288 36.4524 30.7305 36.4524 30.7323 36.4524L30.7388 35.9525M30.727 36.4524C30.7237 36.4523 30.7203 36.4521 30.717 36.452L30.7388 35.9525" fill="#333333" stroke="#222222"/>
<path d="M28.3813 36.0211C27.5917 36.1029 26.8109 36.2541 26.048 36.4731C25.8192 36.5396 25.6433 36.7232 25.5866 36.9546C25.5298 37.186 25.6009 37.4301 25.7729 37.5949C25.945 37.7598 26.1919 37.8203 26.4206 37.7537C27.1084 37.5564 27.8122 37.4203 28.524 37.3471C28.8901 37.3084 29.1556 36.9802 29.117 36.6141C29.0783 36.2479 28.7501 35.9824 28.384 36.0211H28.3813Z" fill="#333333"/>
<path d="M21 10.333C21 11.4376 21.8954 12.333 23 12.333C24.1046 12.333 25 11.4376 25 10.333C25 9.22844 24.1046 8.33301 23 8.33301C21.8954 8.33301 21 9.22844 21 10.333ZM23 9.66634C23.3682 9.66634 23.6667 9.96482 23.6667 10.333C23.6667 10.7012 23.3682 10.9997 23 10.9997C22.6318 10.9997 22.3333 10.7012 22.3333 10.333C22.3333 9.96482 22.6318 9.66634 23 9.66634Z" fill="#333333"/>
</g>
<defs>
<clipPath id="clip0_621_6">
<rect width="40" height="40" fill="white" transform="translate(3 3)"/>
</clipPath>
</defs>
</svg>
