<svg width="46" height="46" viewBox="0 0 46 46" fill="none" xmlns="http://www.w3.org/2000/svg">
<path d="M29.3419 33.5344L25.8183 33.0224L24.2424 29.8293H21.758L20.1821 33.0224L16.6584 33.5344L15.8906 35.8974L18.4404 38.3827L17.8384 41.8922L19.8484 43.3526L23.0002 41.6955L26.1519 43.3525L28.1619 41.8921L27.56 38.3827L30.1097 35.8973L29.3419 33.5344ZM24.664 37.4417L25.0568 39.7317L23.0002 38.6506L20.9437 39.7317L21.3365 37.4417L19.6728 35.82L21.972 35.4859L23.0002 33.4025L24.0285 35.4859L26.3277 35.82L24.664 37.4417Z" fill="#333333"/>
<path d="M13.4513 33.5344L9.92764 33.0224L8.35178 29.8293H5.86725L4.29139 33.0224L0.767625 33.5344L0 35.8974L2.54977 38.3827L1.94781 41.8922L3.9578 43.3526L7.10952 41.6956L10.2612 43.3526L12.2713 41.8922L11.6694 38.3827L14.2191 35.8974L13.4513 33.5344ZM8.77324 37.4417L9.16604 39.7317L7.10952 38.6506L5.05308 39.7317L5.44579 37.4417L3.78206 35.82L6.08125 35.4859L7.10952 33.4025L8.13778 35.4859L10.437 35.82L8.77324 37.4417Z" fill="#333333"/>
<path d="M45.9999 35.8974L45.2323 33.5344L41.7085 33.0224L40.1326 29.8293H37.6481L36.0722 33.0224L32.5486 33.5344L31.7808 35.8974L34.3305 38.3827L33.7286 41.8922L35.7386 43.3526L38.8904 41.6956L42.0421 43.3526L44.052 41.8922L43.45 38.3827L45.9999 35.8974ZM40.5541 37.4417L40.9468 39.7317L38.8904 38.6506L36.8338 39.7317L37.2266 37.4417L35.5629 35.82L37.8621 35.4859L38.8904 33.4025L39.9186 35.4859L42.2178 35.82L40.5541 37.4417Z" fill="#333333"/>
<path d="M23 2.64722C16.2873 2.64722 10.8262 8.10837 10.8262 14.821C10.8262 21.5337 16.2873 26.9949 23 26.9949C29.7127 26.9949 35.1738 21.5337 35.1738 14.821C35.1738 8.10837 29.7126 2.64722 23 2.64722ZM23 24.2996C17.7735 24.2996 13.5215 20.0475 13.5215 14.821C13.5215 9.59456 17.7735 5.34253 23 5.34253C28.2265 5.34253 32.4785 9.59456 32.4785 14.821C32.4785 20.0475 28.2264 24.2996 23 24.2996Z" fill="#333333"/>
<path d="M21.9583 15.3315L19.0509 12.4241L17.145 14.3299L21.9583 19.1432L28.8546 12.2469L26.9488 10.3411L21.9583 15.3315Z" fill="#333333"/>
</svg>
