<svg width="46" height="46" viewBox="0 0 46 46" fill="none" xmlns="http://www.w3.org/2000/svg">
<g clip-path="url(#clip0_1_471)">
<path d="M41.1519 25.513C40.0252 24.0525 40.0137 22.081 41.1233 20.6072L43.7485 17.1208C44.0148 16.7671 44.0906 16.3055 43.9513 15.8852C43.8121 15.465 43.4756 15.14 43.0508 15.0153L38.9865 13.8227C37.2164 13.3034 36.0483 11.7152 36.0799 9.87065L36.1545 5.50698C36.162 5.0644 35.9519 4.64628 35.5923 4.38821C35.2325 4.13015 34.7691 4.06505 34.3524 4.21377L30.3633 5.6379C28.6263 6.25825 26.7475 5.66002 25.6889 4.14912L23.1841 0.57485C22.7565 -0.0351592 21.9156 -0.183165 21.3055 0.244308C20.9316 0.506332 20.7322 0.923824 20.7316 1.34824H20.7307C20.7307 1.34824 20.7307 2.46926 20.7308 4.34847L19.2842 2.90186C18.7575 2.3752 17.9035 2.3752 17.3767 2.90186C16.85 3.42851 16.85 4.28256 17.3767 4.8093L20.7309 8.16345C20.7309 9.31243 20.731 10.5686 20.731 11.9018L18.0526 9.22341C17.5259 8.69676 16.6719 8.69676 16.1451 9.22341C15.6184 9.75007 15.6184 10.6041 16.1451 11.1309L20.7311 15.7168C20.7311 17.3196 20.7312 18.9822 20.7312 20.6641L16.4782 18.2087L14.7862 11.894C14.5933 11.1744 13.8535 10.7479 13.1343 10.9402C12.4148 11.1331 11.9877 11.8726 12.1805 12.5921L13.1743 16.3012L9.93084 14.4285L8.69221 9.80591C8.49934 9.08638 7.75948 8.65971 7.04031 8.85214C6.32078 9.04502 5.89376 9.78451 6.08655 10.504L6.62696 12.5211L4.0034 11.0064C3.35823 10.6338 2.53332 10.855 2.16096 11.5001C1.78843 12.1452 2.00945 12.9701 2.65462 13.3425L5.25228 14.8423L3.27614 15.3718C2.55661 15.5646 2.12967 16.3042 2.32246 17.0237C2.48395 17.6262 3.02886 18.0237 3.62439 18.0237C3.73994 18.0237 3.85746 18.0087 3.97444 17.9774L8.55607 16.7496L11.7935 18.6188L8.13498 19.599C7.41537 19.7919 6.98843 20.5315 7.18122 21.251C7.34271 21.8536 7.88762 22.251 8.48315 22.251C8.5987 22.251 8.71622 22.236 8.8332 22.2047L15.0974 20.5262L19.3818 22.9999L15.1293 25.4551L8.81468 23.7631C8.09551 23.5709 7.35548 23.9972 7.16269 24.7168C6.96991 25.4363 7.39684 26.176 8.11646 26.3688L11.8253 27.3626L8.58233 29.2353L3.95961 27.9966C3.24044 27.8044 2.50041 28.2307 2.30762 28.9503C2.11484 29.6698 2.54177 30.4094 3.2613 30.6022L5.27845 31.1427L2.65489 32.6574C2.00972 33.0299 1.7887 33.8547 2.16123 34.4998C2.41103 34.9326 2.8644 35.1744 3.33054 35.1744C3.55938 35.1744 3.79128 35.1161 4.00367 34.9935L6.60115 33.4938L6.07171 35.4699C5.87892 36.1894 6.30595 36.929 7.02548 37.1218C7.14237 37.1531 7.25972 37.1681 7.37544 37.1681C7.97088 37.1681 8.51597 36.7707 8.67737 36.168L9.90504 31.5864L13.1425 29.7172L12.1622 33.3759C11.9694 34.0954 12.3964 34.835 13.1159 35.0278C13.2328 35.059 13.3502 35.0741 13.4659 35.0741C14.0613 35.0741 14.6064 34.6766 14.7678 34.074L16.4464 27.8098L20.7313 25.3359C20.7313 27.005 20.7314 28.6549 20.7314 30.246L16.1081 34.8692C15.5814 35.3959 15.5813 36.2499 16.1081 36.7767C16.3715 37.0401 16.7167 37.1718 17.0618 37.1718C17.4069 37.1718 17.7522 37.04 18.0154 36.7767L20.7314 34.0607C20.7314 35.3964 20.7315 36.655 20.7315 37.8059L17.3466 41.1908C16.8199 41.7174 16.8199 42.5715 17.3466 43.0982C17.61 43.3616 17.9552 43.4933 18.3003 43.4933C18.6454 43.4933 18.9907 43.3616 19.254 43.0982L20.7316 41.6206C20.7317 43.4978 20.7317 44.6179 20.7317 44.6187C20.7215 45.0598 20.9267 45.4971 21.3182 45.7647C21.551 45.9238 21.8159 46 22.0781 46C22.5085 46 22.9316 45.7944 23.1928 45.4122L25.5829 41.9153C26.6238 40.3924 28.4955 39.7722 30.2397 40.3722L34.3668 41.7915C34.7853 41.9354 35.248 41.8649 35.6046 41.6026C35.9612 41.3403 36.1664 40.9197 36.1537 40.4772L36.0319 36.2434C35.9788 34.3994 37.1283 32.7978 38.8923 32.2577L43.0655 30.9802C43.4887 30.8506 43.8215 30.5215 43.9558 30.0998C44.0901 29.678 44.009 29.2172 43.7386 28.8666L41.1519 25.513ZM23.4284 15.0203C27.2509 15.6644 30.1723 18.9971 30.1723 23C30.1723 26.9665 27.239 30.3264 23.4284 30.9782C23.4284 26.0349 23.4284 19.976 23.4284 15.0203ZM38.103 29.6784C35.1632 30.5784 33.2473 33.2478 33.3357 36.3211L33.4014 38.6068L31.1172 37.8213C28.2492 36.8349 25.1763 37.8285 23.4283 40.292C23.4283 40.292 23.4283 37.595 23.4283 33.7062C25.843 33.4058 28.0722 32.3055 29.7949 30.5434C31.7778 28.5154 32.8697 25.8363 32.8697 23C32.8697 17.507 28.7438 12.9597 23.4283 12.294C23.4283 8.35992 23.4283 5.62433 23.4283 5.62406C23.4282 5.69662 23.6059 5.86953 23.6515 5.92888C24.6764 7.26525 26.2159 8.22172 27.8931 8.49525C29.0115 8.6777 30.1822 8.5528 31.2593 8.18207C31.9837 7.93272 32.7024 7.6671 33.4238 7.40957L33.3826 9.82461C33.33 12.8988 35.2767 15.5456 38.2268 16.4112L40.4211 17.0551L38.9681 18.9847C37.1189 21.4408 37.138 24.7264 39.0158 27.1608L40.4126 28.9715L38.103 29.6784Z" fill="#333333"/>
</g>
<defs>
<clipPath id="clip0_1_471">
<rect width="46" height="46" fill="white"/>
</clipPath>
</defs>
</svg>
